<svg xmlns="http://www.w3.org/2000/svg" version="1.1" xmlns:xlink="http://www.w3.org/1999/xlink" xmlns:svgjs="http://svgjs.dev/svgjs" viewBox="0 0 800 800" opacity="0.38"><g stroke-width="2" stroke="url(#uundulate-grad)" fill="none"><path d="M673.5920465471687 337.8053323870414C681.5276684265812 427.1336908190192 657.4031652654453 486.56678362936464 563.0947621150513 585.0883289400502C468.7863589646572 683.6098742507359 297.2189871937188 848.9465416635367 220.91171142527696 810.7087498783328C144.60443565683505 772.470958093129 211.9250665365323 571.5808905873982 196.81983842653005 401.54692837107086C181.71461031652774 231.51296615474348 80.03496260823647 45.636297886735235 148.40661649726587 -5.454268760038303C216.77827038629528 -56.54483540681184 415.5901458334755 84.79979156091576 525.0037770938718 156.31220846655742C634.417408354268 227.8246253721992 665.6564246677563 248.4769739550636 673.5920465471687 337.8053323870414C681.5276684265812 427.1336908190192 657.4031652654453 486.56678362936464 563.0947621150513 585.0883289400502 "></path><path d="M661.1560694003159 340.6323682817356C668.7309811943005 425.90034678498705 645.7030463586707 482.6319353766803 555.6813888060219 576.6752286277895C465.65973125337314 670.7185218788984 301.8908763811137 828.539886227481 229.052113147601 792.0401758870591C156.21334991408827 755.5404655466373 220.47395211743566 563.7817647457125 206.05532528516073 401.4766189937636C191.63669845288587 239.17147324181485 94.57885291315324 61.743744440534215 159.84270435268132 12.9754762777049C225.1065557922094 -35.79279188512436 414.88152780997234 99.12707931134287 519.321812194896 167.3889318121827C623.7620965798199 235.65078431302254 653.5811576063312 255.364389778484 661.1560694003159 340.6323682817356C668.7309811943005 425.90034678498705 645.7030463586707 482.6319353766803 555.6813888060219 576.6752286277895 "></path><path d="M648.7200464770958 343.4593736588515C655.9342481856527 424.6669722333768 634.0028816755291 478.6970566064181 548.2679697206254 568.2620977979506C462.5330577657219 657.8271389894829 306.5627197921415 808.1332002738473 237.19246909355786 773.3715713782076C167.82221839497436 738.6099424825675 229.02279192197182 555.9826083864488 215.29076636742428 401.4062790988784C201.5587408128768 246.8299498113081 109.12269744170288 77.85116047675501 171.27874643172964 31.405190797869977C233.43479542175635 -15.040778881015058 414.1728640101021 113.45433654419185 513.6398015195532 178.4656246402298C613.1067390290043 243.47691273626776 641.505844768539 262.25177508432625 648.7200464770958 343.4593736588515C655.9342481856527 424.6669722333768 634.0028816755291 478.6970566064181 548.2679697206254 568.2620977979506 "></path><path d="M636.2840388126649 346.2864400711238C643.1375304357938 423.4336587169229 622.3027322511764 474.7622388713121 540.8545658940179 559.8490280032678C459.40639953685957 644.9358171352236 311.23457846195817 787.7265753553697 245.33284029830378 754.7030279045118C179.43110213464945 721.6794804536539 237.5716469852971 548.183513062341 224.5262227084769 401.33600023914926C211.4807984316568 254.48848741595748 123.66655722904159 93.95863754813212 182.71480376956697 49.83496635319136C241.76305031009235 5.71129515825055 413.4642154690207 127.78165481219713 507.95780610299937 189.54237850343316C602.4513967369779 251.30310219466924 629.4305471895359 269.1392214253249 636.2840388126649 346.2864400711238C643.1375304357938 423.4336587169229 622.3027322511764 474.7622388713121 540.8545658940179 559.8490280032678 "></path><path d="M623.848031148234 349.1134454482399C630.340812685935 422.2002841653125 610.6025828268239 470.82736010104963 533.4411620674105 551.4358971734289C456.27974130799726 632.044434245808 315.9064371317749 767.319889401736 253.47321150304975 736.03442339566C191.03998587432454 704.7489573895842 246.1205020486223 540.3843567030772 233.7616790495295 401.265660344264C221.40285605043675 262.1469639854506 138.21041701638023 110.06605358435297 194.1508611074043 68.26468087335644C250.09130519842836 26.46330816235991 412.7555669279395 142.1089120450461 502.27581068644554 200.61907133148026C591.7960544449516 259.12923061791435 617.3552496105328 276.026606731167 623.848031148234 349.1134454482399C630.340812685935 422.2002841653125 610.6025828268239 470.82736010104963 533.4411620674105 551.4358971734289 "></path><path d="M611.4120692601701 351.94048134293394C617.5441407124433 420.96694013128035 598.9024791788383 466.89251184836553 526.0278040171703 543.022796861168C453.15312885550225 619.1530818739706 320.5783415779589 746.9132339656802 261.61362848416286 717.3658494043864C202.64891539036688 687.8184648430926 254.66940288831472 532.5852308613914 242.9971811669493 401.19535096695677C231.32495944558394 269.805471072522 152.75432258008613 126.1735001381519 205.58696422160887 86.69442591109964C258.41960586313155 47.21535168404739 412.0469641632253 156.43619979547327 496.5938610462588 211.69579467710548C581.1407579292922 266.9553895587377 605.279997807897 282.9140225545875 611.4120692601701 351.94048134293394C617.5441407124433 420.96694013128035 598.9024791788383 466.89251184836553 526.0278040171703 543.022796861168 "></path><path d="M598.976031078161 354.76754775520624C604.7473924450064 419.73362661482645 587.2022992369077 462.95769411325955 518.6143696729847 534.6097270664853C450.0264401090618 606.2617600197112 325.2501697301975 726.5066090472027 269.75396917133065 698.6973059306908C214.25776861246385 670.888002814179 263.2182274340618 524.7861355372839 252.23260699042385 401.12507210722765C241.24698654678582 277.4640086771715 167.2981518498467 142.280977209529 217.02299104186807 105.12420146642097C266.74783023388943 67.967425723313 411.338285104566 170.7635180634785 490.91183511212694 222.77254854030883C570.4853851196879 274.78157901713917 593.2046697113155 289.8014688955859 598.976031078161 354.76754775520624C604.7473924450064 419.73362661482645 587.2022992369077 462.95769411325955 518.6143696729847 534.6097270664853 "></path><path d="M586.5400539313082 357.5945531323223C591.9507052127258 418.5002520632162 575.5021803301331 459.0228153429971 511.20099636395537 526.1965962366464C446.8998123977776 593.3703771302958 329.9220589175924 706.099923093569 277.8943708936547 680.0287014218391C225.86668286971707 653.9574797501092 271.7671130149652 516.9869791780201 261.4680938490546 401.0547322123423C251.1690746831439 285.1224852466646 181.84204215476348 158.38839324574985 228.45907889728352 123.5539159865861C275.0761156398036 88.7194387274223 410.62966708106285 185.09077529632748 485.2298702131511 233.84924136835593C559.8300733452395 282.6077074403844 581.1294026498906 296.6888542014283 586.5400539313082 357.5945531323223C591.9507052127258 418.5002520632162 575.5021803301331 459.0228153429971 511.20099636395537 526.1965962366464 "></path><path d="M574.1040157492992 360.4216195445945C579.1539569452889 417.2669385467623 563.8020003882024 455.0879976078911 503.7875620197699 517.7835264419638C443.7731236513373 580.4790552760364 334.593887069831 685.6932981750915 286.03471158082255 661.3601579481436C237.4755360918141 637.0270177211958 280.3159375607123 509.18788385391247 270.70351967252907 400.9844533526133C261.09110178434577 292.78102285131405 196.38587142452405 174.49587031712696 239.89510571754278 141.98369154190743C283.4043400105615 109.47151276668791 409.92098802240344 199.41809356433276 479.5478442790193 244.92599523155928C549.1747005356351 290.43389689878586 569.0540745533094 303.5763005424268 574.1040157492992 360.4216195445945C579.1539569452889 417.2669385467623 563.8020003882024 455.0879976078911 503.7875620197699 517.7835264419638 "></path><path d="M561.6680080848682 363.24862492171053C566.3572391954301 416.033563995152 552.1018509638498 451.15311883762877 496.37415819316243 509.37039561212487C440.646465422475 567.5876723866209 339.26574573964774 665.2866122214577 294.17508278556846 642.6915534392919C249.08441983148919 620.096494657126 288.86479262403753 501.3887274946487 279.9389760135817 400.9141134577279C271.01315940312577 300.43949942080724 210.92973121186276 190.6032863533478 251.3311630553801 160.4134060620725C291.7325948988975 130.22352577079727 409.21233948132215 213.74535079718174 473.86584886246544 256.0026880596064C538.5193582436086 298.2600253220311 556.9787769743062 310.46368584826905 561.6680080848682 363.24862492171053C566.3572391954301 416.033563995152 552.1018509638498 451.15311883762877 496.37415819316243 509.37039561212487 "></path><path d="M549.2320156792263 366.0756608164047C553.5605367043604 414.80021996111986 540.4017167982862 447.21827058494455 488.960769625344 500.9572952998641C437.51982245240185 554.6963200147834 343.9376196682536 644.8799567854021 302.31546924910344 624.0229794480182C260.69331882995334 603.1660021106343 297.4136629461518 493.589601652963 289.17444761342335 400.8438040804208C280.93523228069483 308.0980065078786 225.47360625799047 206.7107329071468 262.76723565200655 178.84315109981577C300.06086504602257 150.97556929248475 408.5037061990299 228.07263854760885 468.18386870470067 267.07941140523167C527.8640312103713 306.0861842628544 544.9034946540921 317.35110167168955 549.2320156792263 366.0756608164047C553.5605367043604 414.80021996111986 540.4017167982862 447.21827058494455 488.960769625344 500.9572952998641 "></path><path d="M536.7960080147952 368.90269671109877C540.7638189545015 413.5668759270877 528.7015673739336 443.28342233226044 481.54736579873656 492.5441949876033C434.39316422353954 541.804967642946 348.60947833807035 624.4733013493465 310.4558404538494 605.3544054567445C272.30220256962843 586.2355095641426 305.9625180094771 485.79047581127725 298.40990395447596 400.77349470311356C290.85728989947484 315.75651359494987 240.01746604532917 222.81817946094571 274.2032929898439 197.27289613755897C308.3891199343586 171.72761281417218 407.7950576579487 242.399926298036 462.50187328814684 278.15613475085684C517.2086889183449 313.9123432036777 532.8281970750891 324.23851749510993 536.7960080147952 368.90269671109877C540.7638189545015 413.5668759270877 528.7015673739336 443.28342233226044 481.54736579873656 492.5441949876033 "></path><path d="M524.3600461267315 371.7297020882148C527.9671469810099 412.33350137547745 517.0014637259482 439.3485435619981 474.1340077484963 484.1310641577643C431.26655177104453 528.9135847535306 353.28138278425433 604.0666153957127 318.5962574349625 586.6858009478929C283.9111320856708 569.3049865000728 314.5114188491695 477.9913194520134 307.64540607189576 400.7031548082282C300.77939329462197 323.4149901644431 254.56137160903506 238.92559549716657 285.6393961040484 215.70261065772405C316.71742059906177 192.47962581828153 407.08645489323465 256.727183530885 456.8199236479602 289.232827578904C506.55339240268574 321.73847162692294 520.7529452724531 331.1259028009522 524.3600461267315 371.7297020882148C527.9671469810099 412.33350137547745 517.0014637259482 439.3485435619981 474.1340077484963 484.1310641577643 "></path><path d="M511.9240384623006 374.556737982909C515.170429231151 411.1001573414453 505.30131430159554 435.4136953093139 466.7206039218888 475.7179638455035C428.1398935421822 516.0222323816931 357.9532414540711 583.659959959657 326.73662863970844 568.0172269566191C295.52001582534587 552.3744939535811 323.0602739124947 470.19219361032765 316.8808624129484 400.63284543092107C310.70145091340197 331.07349725151437 269.1052313963737 255.03304205096555 297.07545344188577 234.13235569546725C325.0456754873978 213.23166933996902 406.37780635215336 271.05447128131215 451.13792823140636 300.30955092452916C495.89805011065937 329.56463056774624 508.67764769345 338.0133186243726 511.9240384623006 374.556737982909C515.170429231151 411.1001573414453 505.30131430159554 435.4136953093139 466.7206039218888 475.7179638455035 "></path><path d="M499.48803079786956 377.383743360025C502.3737114812923 409.8667827898351 493.6011648772429 431.47881653905165 459.30720009528136 467.3048330156646C425.01323531331997 503.13084949227755 362.6251001238878 563.2532740060233 334.8769998444544 549.3486224477673C307.12889956502096 535.4439708895113 331.60912897582 462.3930372510638 326.116318754001 400.5625055360357C320.623508532182 338.7319738210076 283.6490911837124 271.1404580871864 308.5115107797231 252.5620702156324C333.3739303757338 233.98368234407837 405.66915781107207 285.3817285141611 445.45593281485253 311.3862437525763C485.242707818633 337.39075899099146 496.60235011444684 344.90070393021483 499.48803079786956 377.383743360025C502.3737114812923 409.8667827898351 493.6011648772429 431.47881653905165 459.30720009528136 467.3048330156646 "></path><path d="M487.05202313343864 380.21080977229724C489.5769937314335 408.63346927338114 481.9010154528903 427.54399880394556 451.893796268674 458.89176322098183C421.8865770844577 490.2395276380182 367.29695879370456 542.8466490875458 343.01737104920034 530.6800789740719C318.7377833046961 518.5135088605979 340.1579840391452 454.5939419269562 335.3517750950536 400.49222667630664C330.545566150962 346.390511425657 298.19295097105106 287.24793515856345 319.9475681175604 270.9918457709537C341.7021852640698 254.73575638334398 404.9605092699908 299.70904678216635 439.7739373982987 322.4629976157796C474.5873655266066 345.21694844939293 484.5270525354438 351.7881502712134 487.05202313343864 380.21080977229724C489.5769937314335 408.63346927338114 481.9010154528903 427.54399880394556 451.893796268674 458.89176322098183 "></path><path d="M474.6160002102186 383.0378151494133C476.78026072278567 407.40009472177087 470.20085076974857 423.6091200336832 444.4803771832775 450.47863239114304C418.7599035968064 477.34814474860264 371.96880220473224 522.439963133912 351.1577269951572 512.0114744652201C330.34665178558214 501.5829857965281 348.7068238436814 446.79478556769243 344.58721617731715 400.42188678142134C340.46760851095286 354.04898799515024 312.7367954996007 303.3553511947843 331.38361019660874 289.4215602911188C350.0304248936167 275.4877693874533 404.25184547012043 314.0363040150154 434.0919267229558 333.53969044382677C463.9320079757911 353.04307687263815 472.45173969765153 358.6755355770557 474.6160002102186 383.0378151494133C476.78026072278567 407.40009472177087 470.20085076974857 423.6091200336832 444.4803771832775 450.47863239114304 "></path><path d="M462.18002306336575 385.8648510441074C463.98357349050497 406.1667506877387 458.5007318629741 419.67427178099905 437.06700387424814 442.06553207888214C415.63327588552227 464.4567923767653 376.64069139212717 502.03330769785634 359.2981287174813 493.34290047394643C341.95556604283536 484.6524932500364 357.2557094245848 438.9956597260067 353.8227030359479 400.3515774041141C350.389696647311 361.70749508222156 327.28068580451753 319.4627977485833 342.8196980520242 307.85130532886205C358.3587102995309 296.23981290914077 403.5432274466173 328.3635917654425 428.4099618239801 344.616413789452C453.2766962013429 360.86923581346144 460.37647263622654 365.5629514004761 462.18002306336575 385.8648510441074C463.98357349050497 406.1667506877387 458.5007318629741 419.67427178099905 437.06700387424814 442.06553207888214 "></path><path d="M449.7440153989348 388.69188693880153C451.18685574064614 404.9334066537066 446.80058243862146 415.7394235283149 429.6536000476407 433.65243176662136C412.50661765665996 451.56544000492784 381.3125500619439 481.6266522618007 367.4384999222272 474.6743264826727C353.5644497825105 467.7220007035447 365.80456448791 431.19653388432096 363.0581593770005 400.2812680268069C360.311754266091 369.36600216929287 341.8245455918562 335.57024430238226 354.2557553898616 326.28105036660526C366.6869651878669 316.99185643082825 402.83457890553603 342.6908795158696 422.72796640742627 355.6931371350772C442.6213539093165 368.6953947542848 448.3011750572234 372.4503672238965 449.7440153989348 388.69188693880153C451.18685574064614 404.9334066537066 446.80058243862146 415.7394235283149 429.6536000476407 433.65243176662136 "></path><path d="M437.3080077345038 391.5189228334957C438.39013799078737 403.7000626196745 435.1004330142688 411.80457527563067 422.2401962210333 425.2393314543606C409.3799594277977 438.6740876330904 385.98440873176065 461.21999682574506 375.5788711269731 456.0057524913991C365.1733335221856 450.7915081570531 374.3534195512352 423.3974080426353 372.2936157180531 400.21095864949973C370.233811884871 377.0245092563642 356.3684053791949 351.67769085618124 365.6918127276989 344.71079540434846C375.0152200762029 337.74389995251573 402.12593036445475 357.01816726629676 417.04597099087243 366.76986048070245C431.96601161729006 376.52155369510814 436.2258774782203 379.3377830473169 437.3080077345038 391.5189228334957C438.39013799078737 403.7000626196745 435.1004330142688 411.80457527563067 422.2401962210333 425.2393314543606 "></path><path d="M424.8720000700729 394.34594346940077C425.59342024092854 402.4667033268533 423.40028358991617 407.86971176415744 414.8267923944258 416.8262158833107C406.25330119893545 425.7827200024639 390.6562674015774 440.81332613090035 383.71924233171904 437.3371632413364C376.7822172618607 433.86100035177236 382.90227461456044 415.5982669421605 381.5290720591057 400.1406340134034C380.15586950365093 384.68300108464643 370.9122651665336 367.7851221511911 377.12787006553623 363.1405251833026C383.3434749645389 358.4959282154141 401.41728182337346 371.3454397579348 411.3639755743186 377.8465685675386C421.3106693252637 384.34769737714237 424.1505798992172 386.22518361194824 424.8720000700729 394.34594346940077C425.59342024092854 402.4667033268533 423.40028358991617 407.86971176415744 414.8267923944258 416.8262158833107 "></path><path d="M412.436007664431 397.1729641053059C412.79671774985883 401.23334403403214 411.7001494243526 403.93484825268416 407.41340382660746 408.4131003122608C403.12665822886225 412.8913523718374 395.32814133018326 420.40665543605564 391.8596287952541 418.66857399127366C388.3911162603249 416.9304925464917 391.4511449366748 407.79912584168574 390.7645436589474 400.0703093773072C390.07794238122 392.3414929129287 385.4561402126613 383.892553446201 388.5639426621627 381.5702549622568C391.671745111664 379.2479564783125 400.7086485410813 385.6727122495729 405.68199541655383 388.9232766543748C410.6553422920264 392.17384105917665 412.0752975790031 393.1125841765796 412.436007664431 397.1729641053059C412.79671774985883 401.23334403403214 411.7001494243526 403.93484825268416 407.41340382660746 408.4131003122608 "></path></g><defs><linearGradient x1="50%" y1="0%" x2="50%" y2="100%" id="uundulate-grad"><stop stop-color="hsl(265, 55%, 30%)" stop-opacity="1" offset="45%"></stop><stop stop-color="hsl(265, 55%, 60%)" stop-opacity="1" offset="100%"></stop></linearGradient></defs></svg>